<?xml version="1.0" encoding="UTF-8" standalone="no"?>
<!-- Created with Inkscape (http://www.inkscape.org/) -->

<svg
   width="210mm"
   height="297mm"
   viewBox="0 0 210 297"
   version="1.1"
   id="svg1"
   xml:space="preserve"
   xmlns="http://www.w3.org/2000/svg"
   xmlns:svg="http://www.w3.org/2000/svg"><defs
     id="defs1" /><g
     id="layer1"><path
       style="fill:#000000;fill-opacity:0;stroke:#000000;stroke-width:1.265;stroke-dasharray:none;stroke-opacity:1"
       d="m 128.09717,71.211328 c 0,0 5.23088,4.101486 5.112,9.33237 -0.11888,5.230881 -5.34977,10.461762 -7.13302,11.35339 -1.78326,0.89163 -3.56651,-2.377673 -2.37768,-3.090974 1.18884,-0.713303 5.40921,2.021023 -0.59441,5.17144 -6.00363,3.150418 -9.74847,4.577022 -12.00726,4.81479 -2.25879,0.237765 -11.412829,-0.356653 -16.28706,4.220366 -4.874231,4.57703 1.248278,20.50744 1.01051,21.69628 -0.237768,1.18883 1.188836,8.20297 -1.01051,10.16455 -2.199349,1.96158 -9.035161,10.52121 -9.510696,13.13665 -0.475533,2.61544 0.653862,5.52809 4.636465,6.77637 3.982604,1.24828 5.8253,2.25879 8.143531,2.31823 2.31823,0.0594 21.28018,2.08047 24.37116,6.71693 3.09097,4.63646 10.46176,17.11925 15.33599,16.70316 4.87423,-0.4161 10.52121,4.22037 11.76949,5.88474 1.24827,1.66437 4.99311,6.00362 5.112,7.72744 0.11888,1.72381 2.31823,7.07358 -7.90577,10.69953 -10.224,3.62595 -17.29758,0.65386 -17.29758,0.65386 0,0 -5.23088,-2.1399 -12.00725,0.23777 -6.77637,2.37767 -19.73469,8.85683 -24.787248,15.27655 -5.052557,6.41972 -1.307719,12.48279 -0.653859,13.19609 0.653859,0.7133 3.328744,5.05256 7.014136,6.83581"
       id="path2" /></g></svg>
